<mxfile host="app.diagrams.net" modified="2023-10-04T13:29:48.825Z" agent="Mozilla/5.0 (Windows NT 10.0; Win64; x64) AppleWebKit/537.36 (KHTML, like Gecko) Chrome/117.0.0.0 Safari/537.36" etag="yh6WONDzc8ia_-7gwdpd" version="22.0.2" type="device">
  <diagram id="C5RBs43oDa-KdzZeNtuy" name="Page-1">
    <mxGraphModel dx="1914" dy="940" grid="1" gridSize="10" guides="1" tooltips="1" connect="1" arrows="1" fold="1" page="1" pageScale="1" pageWidth="827" pageHeight="1169" math="0" shadow="0">
      <root>
        <mxCell id="WIyWlLk6GJQsqaUBKTNV-0" />
        <mxCell id="WIyWlLk6GJQsqaUBKTNV-1" parent="WIyWlLk6GJQsqaUBKTNV-0" />
        <mxCell id="dEb25kDwK-8bPXaEIJRl-23" style="edgeStyle=orthogonalEdgeStyle;rounded=0;orthogonalLoop=1;jettySize=auto;html=1;exitX=1;exitY=0.5;exitDx=0;exitDy=0;curved=1;strokeWidth=3;fillColor=#d80073;strokeColor=#A50040;entryX=1;entryY=0.5;entryDx=0;entryDy=0;" parent="WIyWlLk6GJQsqaUBKTNV-1" source="qkU0JbKQ6EuipafsIjLe-23" target="qkU0JbKQ6EuipafsIjLe-20" edge="1">
          <mxGeometry relative="1" as="geometry">
            <Array as="points">
              <mxPoint x="700" y="200" />
              <mxPoint x="700" y="560" />
            </Array>
            <mxPoint x="560" y="200" as="sourcePoint" />
            <mxPoint x="610" y="560" as="targetPoint" />
          </mxGeometry>
        </mxCell>
        <mxCell id="dEb25kDwK-8bPXaEIJRl-27" style="edgeStyle=orthogonalEdgeStyle;rounded=0;orthogonalLoop=1;jettySize=auto;html=1;curved=1;strokeWidth=3;fillColor=#d80073;strokeColor=#A50040;exitX=1.002;exitY=0.356;exitDx=0;exitDy=0;exitPerimeter=0;entryX=1.002;entryY=0.375;entryDx=0;entryDy=0;entryPerimeter=0;" parent="WIyWlLk6GJQsqaUBKTNV-1" source="qkU0JbKQ6EuipafsIjLe-23" target="qkU0JbKQ6EuipafsIjLe-18" edge="1">
          <mxGeometry relative="1" as="geometry">
            <Array as="points">
              <mxPoint x="720" y="188" />
              <mxPoint x="720" y="790" />
            </Array>
            <mxPoint x="612.3" y="220" as="sourcePoint" />
            <mxPoint x="620" y="810" as="targetPoint" />
          </mxGeometry>
        </mxCell>
        <mxCell id="dEb25kDwK-8bPXaEIJRl-24" style="edgeStyle=orthogonalEdgeStyle;curved=1;rounded=0;orthogonalLoop=1;jettySize=auto;html=1;entryX=1;entryY=0.25;entryDx=0;entryDy=0;strokeWidth=3;fillColor=#e51400;strokeColor=#CCCC00;exitX=1;exitY=0.5;exitDx=0;exitDy=0;" parent="WIyWlLk6GJQsqaUBKTNV-1" target="qkU0JbKQ6EuipafsIjLe-20" edge="1">
          <mxGeometry relative="1" as="geometry">
            <Array as="points">
              <mxPoint x="660" y="327" />
              <mxPoint x="660" y="540" />
            </Array>
            <mxPoint x="600" y="326.48" as="sourcePoint" />
            <mxPoint x="603.96" y="560" as="targetPoint" />
          </mxGeometry>
        </mxCell>
        <mxCell id="dEb25kDwK-8bPXaEIJRl-32" style="edgeStyle=orthogonalEdgeStyle;curved=1;rounded=0;orthogonalLoop=1;jettySize=auto;html=1;entryX=1;entryY=0.5;entryDx=0;entryDy=0;strokeColor=#0000FF;strokeWidth=3;exitX=0.975;exitY=0.829;exitDx=0;exitDy=0;exitPerimeter=0;" parent="WIyWlLk6GJQsqaUBKTNV-1" target="qkU0JbKQ6EuipafsIjLe-16" edge="1">
          <mxGeometry relative="1" as="geometry">
            <Array as="points">
              <mxPoint x="693" y="440" />
              <mxPoint x="693" y="1040" />
            </Array>
            <mxPoint x="600" y="440.0199999999999" as="sourcePoint" />
            <mxPoint x="603" y="1013.7" as="targetPoint" />
          </mxGeometry>
        </mxCell>
        <mxCell id="dEb25kDwK-8bPXaEIJRl-19" style="rounded=0;orthogonalLoop=1;jettySize=auto;html=1;entryX=0.001;entryY=0.879;entryDx=0;entryDy=0;strokeWidth=3;entryPerimeter=0;" parent="WIyWlLk6GJQsqaUBKTNV-1" source="dEb25kDwK-8bPXaEIJRl-12" target="qkU0JbKQ6EuipafsIjLe-22" edge="1">
          <mxGeometry relative="1" as="geometry">
            <mxPoint x="557.7199999999998" y="329.76" as="targetPoint" />
          </mxGeometry>
        </mxCell>
        <mxCell id="dEb25kDwK-8bPXaEIJRl-22" style="edgeStyle=none;rounded=0;orthogonalLoop=1;jettySize=auto;html=1;entryX=-0.019;entryY=0.9;entryDx=0;entryDy=0;strokeWidth=3;entryPerimeter=0;" parent="WIyWlLk6GJQsqaUBKTNV-1" source="dEb25kDwK-8bPXaEIJRl-12" target="qkU0JbKQ6EuipafsIjLe-21" edge="1">
          <mxGeometry relative="1" as="geometry">
            <mxPoint x="560" y="460" as="targetPoint" />
          </mxGeometry>
        </mxCell>
        <mxCell id="dEb25kDwK-8bPXaEIJRl-26" style="rounded=0;orthogonalLoop=1;jettySize=auto;html=1;entryX=0;entryY=0.75;entryDx=0;entryDy=0;strokeWidth=3;" parent="WIyWlLk6GJQsqaUBKTNV-1" source="dEb25kDwK-8bPXaEIJRl-12" target="qkU0JbKQ6EuipafsIjLe-19" edge="1">
          <mxGeometry relative="1" as="geometry">
            <mxPoint x="552.8000000000002" y="673.52" as="targetPoint" />
          </mxGeometry>
        </mxCell>
        <mxCell id="dEb25kDwK-8bPXaEIJRl-28" style="rounded=0;orthogonalLoop=1;jettySize=auto;html=1;strokeWidth=3;entryX=0;entryY=0.75;entryDx=0;entryDy=0;" parent="WIyWlLk6GJQsqaUBKTNV-1" source="dEb25kDwK-8bPXaEIJRl-12" target="qkU0JbKQ6EuipafsIjLe-18" edge="1">
          <mxGeometry relative="1" as="geometry">
            <mxPoint x="560" y="820" as="targetPoint" />
          </mxGeometry>
        </mxCell>
        <mxCell id="dEb25kDwK-8bPXaEIJRl-12" value="&lt;font color=&quot;#000000&quot;&gt;&lt;b&gt;107: PLINK&lt;/b&gt;&lt;/font&gt;" style="ellipse;whiteSpace=wrap;html=1;fillColor=#e1d5e7;strokeColor=#9673a6;" parent="WIyWlLk6GJQsqaUBKTNV-1" vertex="1">
          <mxGeometry x="200" y="920" width="120" height="80" as="geometry" />
        </mxCell>
        <mxCell id="dEb25kDwK-8bPXaEIJRl-21" style="edgeStyle=none;rounded=0;orthogonalLoop=1;jettySize=auto;html=1;strokeWidth=3;entryX=0;entryY=0.5;entryDx=0;entryDy=0;" parent="WIyWlLk6GJQsqaUBKTNV-1" source="qkU0JbKQ6EuipafsIjLe-35" target="qkU0JbKQ6EuipafsIjLe-21" edge="1">
          <mxGeometry relative="1" as="geometry">
            <mxPoint x="240" y="480" as="sourcePoint" />
            <mxPoint x="480" y="450" as="targetPoint" />
          </mxGeometry>
        </mxCell>
        <mxCell id="utWPcHmu2K7LS_2S_HRB-0" value="&lt;p data-pm-slice=&quot;1 1 [&amp;quot;body&amp;quot;,null]&quot;&gt;&lt;strong&gt;&lt;font style=&quot;font-size: 14px;&quot;&gt;&lt;u&gt;Analytical workflows&lt;/u&gt;&lt;/font&gt;&lt;/strong&gt;&lt;/p&gt;" style="text;html=1;align=center;verticalAlign=middle;resizable=0;points=[];autosize=1;strokeColor=none;fillColor=none;" parent="WIyWlLk6GJQsqaUBKTNV-1" vertex="1">
          <mxGeometry x="460" y="70" width="160" height="50" as="geometry" />
        </mxCell>
        <mxCell id="utWPcHmu2K7LS_2S_HRB-1" value="&lt;b&gt;&lt;u&gt;Basic operations&lt;/u&gt;&lt;/b&gt;" style="text;html=1;align=center;verticalAlign=middle;resizable=0;points=[];autosize=1;strokeColor=none;fillColor=none;fontSize=14;" parent="WIyWlLk6GJQsqaUBKTNV-1" vertex="1">
          <mxGeometry x="190" y="80" width="140" height="30" as="geometry" />
        </mxCell>
        <mxCell id="dNcQ-firc5VJONFwm-qN-0" value="&lt;p data-pm-slice=&quot;1 1 [&amp;quot;body&amp;quot;,null]&quot;&gt;&lt;b&gt;&lt;font color=&quot;#000000&quot;&gt;106:&amp;nbsp;&lt;/font&gt;pVCF to PLINK&lt;/b&gt;&lt;/p&gt;" style="ellipse;whiteSpace=wrap;html=1;fillColor=#e1d5e7;strokeColor=#9673a6;" parent="WIyWlLk6GJQsqaUBKTNV-1" vertex="1">
          <mxGeometry x="200" y="800" width="120" height="80" as="geometry" />
        </mxCell>
        <mxCell id="qkU0JbKQ6EuipafsIjLe-16" value="&lt;p data-pm-slice=&quot;1 1 [&amp;quot;body&amp;quot;,null]&quot;&gt;&lt;b&gt;&lt;font color=&quot;#000000&quot;&gt;208: Functional variant annotation&lt;/font&gt;&lt;/b&gt;&lt;/p&gt;" style="whiteSpace=wrap;html=1;rounded=1;glass=0;strokeWidth=1;shadow=0;fillColor=#008a00;fontColor=#ffffff;strokeColor=#005700;" parent="WIyWlLk6GJQsqaUBKTNV-1" vertex="1">
          <mxGeometry x="480" y="1000" width="120" height="80" as="geometry" />
        </mxCell>
        <mxCell id="qkU0JbKQ6EuipafsIjLe-17" value="&lt;p data-pm-slice=&quot;1 1 [&amp;quot;body&amp;quot;,null]&quot;&gt;&lt;b&gt;&lt;font color=&quot;#000000&quot;&gt;207: SNP Annotatation&lt;/font&gt;&lt;/b&gt;&lt;/p&gt;" style="whiteSpace=wrap;html=1;rounded=1;glass=0;strokeWidth=1;shadow=0;fillColor=#008a00;fontColor=#ffffff;strokeColor=#005700;" parent="WIyWlLk6GJQsqaUBKTNV-1" vertex="1">
          <mxGeometry x="480" y="880" width="120" height="80" as="geometry" />
        </mxCell>
        <mxCell id="qkU0JbKQ6EuipafsIjLe-18" value="&lt;p data-pm-slice=&quot;1 1 [&amp;quot;body&amp;quot;,null]&quot;&gt;&lt;b&gt;&lt;font color=&quot;#000000&quot;&gt;206: Polygenic risk scores - hypertension&lt;/font&gt;&lt;/b&gt;&lt;/p&gt;" style="whiteSpace=wrap;html=1;rounded=1;glass=0;strokeWidth=1;shadow=0;fillColor=#008a00;fontColor=#ffffff;strokeColor=#005700;" parent="WIyWlLk6GJQsqaUBKTNV-1" vertex="1">
          <mxGeometry x="480" y="760" width="120" height="80" as="geometry" />
        </mxCell>
        <mxCell id="qkU0JbKQ6EuipafsIjLe-19" value="&lt;p data-pm-slice=&quot;1 1 [&amp;quot;body&amp;quot;,null]&quot;&gt;&lt;b&gt;&lt;font color=&quot;#000000&quot;&gt;205: Polygenic risk scores - height&lt;/font&gt;&lt;/b&gt;&lt;/p&gt;" style="whiteSpace=wrap;html=1;rounded=1;glass=0;strokeWidth=1;shadow=0;fillColor=#008a00;fontColor=#ffffff;strokeColor=#005700;" parent="WIyWlLk6GJQsqaUBKTNV-1" vertex="1">
          <mxGeometry x="480" y="640" width="120" height="80" as="geometry" />
        </mxCell>
        <mxCell id="qkU0JbKQ6EuipafsIjLe-20" value="&lt;p data-pm-slice=&quot;1 1 [&amp;quot;body&amp;quot;,null]&quot;&gt;&lt;b&gt;&lt;font color=&quot;#000000&quot;&gt;204: GWAS hypertension&lt;/font&gt;&lt;/b&gt;&lt;/p&gt;" style="rounded=1;whiteSpace=wrap;html=1;fontSize=12;glass=0;strokeWidth=1;shadow=0;fillColor=#008a00;fontColor=#ffffff;strokeColor=#005700;" parent="WIyWlLk6GJQsqaUBKTNV-1" vertex="1">
          <mxGeometry x="480" y="520" width="120" height="80" as="geometry" />
        </mxCell>
        <mxCell id="qkU0JbKQ6EuipafsIjLe-21" value="&lt;p data-pm-slice=&quot;1 1 [&amp;quot;body&amp;quot;,null]&quot;&gt;&lt;b&gt;&lt;font color=&quot;#000000&quot;&gt;203: GWAS participant height&lt;/font&gt;&lt;/b&gt;&lt;/p&gt;" style="rounded=1;whiteSpace=wrap;html=1;shadow=0;fontFamily=Helvetica;fontSize=12;align=center;strokeWidth=1;spacing=6;spacingTop=-4;fillColor=#008a00;fontColor=#ffffff;strokeColor=#005700;" parent="WIyWlLk6GJQsqaUBKTNV-1" vertex="1">
          <mxGeometry x="480" y="400" width="120" height="80" as="geometry" />
        </mxCell>
        <mxCell id="qkU0JbKQ6EuipafsIjLe-22" value="&lt;p data-pm-slice=&quot;1 1 [&amp;quot;body&amp;quot;,null]&quot;&gt;&lt;font color=&quot;#000000&quot;&gt;&lt;b&gt;202: Population structure (PCA)&lt;/b&gt;&lt;/font&gt;&lt;/p&gt;" style="rounded=1;whiteSpace=wrap;html=1;shadow=0;fontFamily=Helvetica;fontSize=12;align=center;strokeWidth=1;spacing=6;spacingTop=-4;fillColor=#008a00;fontColor=#ffffff;strokeColor=#005700;" parent="WIyWlLk6GJQsqaUBKTNV-1" vertex="1">
          <mxGeometry x="480" y="280" width="120" height="80" as="geometry" />
        </mxCell>
        <mxCell id="qkU0JbKQ6EuipafsIjLe-23" value="&lt;b&gt;&lt;font color=&quot;#000000&quot;&gt;201: Hypertension data manipulation&lt;/font&gt;&lt;/b&gt;" style="rounded=1;whiteSpace=wrap;html=1;shadow=0;fontFamily=Helvetica;fontSize=12;align=center;strokeWidth=1;spacing=6;spacingTop=-4;fillColor=#008a00;fontColor=#ffffff;strokeColor=#005700;" parent="WIyWlLk6GJQsqaUBKTNV-1" vertex="1">
          <mxGeometry x="480" y="160" width="120" height="80" as="geometry" />
        </mxCell>
        <mxCell id="qkU0JbKQ6EuipafsIjLe-33" value="&lt;p data-pm-slice=&quot;1 1 [&amp;quot;body&amp;quot;,null]&quot;&gt;&lt;b&gt;&lt;font color=&quot;#000000&quot;&gt;101: Explore phenotype tables&lt;/font&gt;&lt;/b&gt;&lt;/p&gt;" style="ellipse;whiteSpace=wrap;html=1;fillColor=#e1d5e7;strokeColor=#9673a6;" parent="WIyWlLk6GJQsqaUBKTNV-1" vertex="1">
          <mxGeometry x="200" y="200" width="120" height="80" as="geometry" />
        </mxCell>
        <mxCell id="qkU0JbKQ6EuipafsIjLe-34" value="&lt;p data-pm-slice=&quot;1 1 [&amp;quot;body&amp;quot;,null]&quot;&gt;&lt;b&gt;&lt;font color=&quot;#000000&quot;&gt;102: Explore participant data&lt;/font&gt;&lt;/b&gt;&lt;/p&gt;" style="ellipse;whiteSpace=wrap;html=1;fillColor=#e1d5e7;strokeColor=#9673a6;" parent="WIyWlLk6GJQsqaUBKTNV-1" vertex="1">
          <mxGeometry x="200" y="320" width="120" height="80" as="geometry" />
        </mxCell>
        <mxCell id="qkU0JbKQ6EuipafsIjLe-35" value="&lt;p data-pm-slice=&quot;1 1 [&amp;quot;body&amp;quot;,null]&quot;&gt;&lt;b&gt;&lt;font color=&quot;#000000&quot;&gt;103: Export participant data&lt;/font&gt;&lt;/b&gt;&lt;/p&gt;" style="ellipse;whiteSpace=wrap;html=1;fillColor=#e1d5e7;strokeColor=#9673a6;" parent="WIyWlLk6GJQsqaUBKTNV-1" vertex="1">
          <mxGeometry x="200" y="440" width="120" height="80" as="geometry" />
        </mxCell>
        <mxCell id="qkU0JbKQ6EuipafsIjLe-36" value="&lt;p data-pm-slice=&quot;1 1 [&amp;quot;body&amp;quot;,null]&quot;&gt;&lt;b&gt;&lt;font color=&quot;#000000&quot;&gt;104: Explore phenotype tables&lt;/font&gt;&lt;/b&gt;&lt;/p&gt;" style="ellipse;whiteSpace=wrap;html=1;fillColor=#e1d5e7;strokeColor=#9673a6;" parent="WIyWlLk6GJQsqaUBKTNV-1" vertex="1">
          <mxGeometry x="200" y="560" width="120" height="80" as="geometry" />
        </mxCell>
        <mxCell id="qkU0JbKQ6EuipafsIjLe-37" value="&lt;p data-pm-slice=&quot;1 1 [&amp;quot;body&amp;quot;,null]&quot;&gt;&lt;b&gt;&lt;font color=&quot;#000000&quot;&gt;105: Export participant data&lt;/font&gt;&lt;/b&gt;&lt;/p&gt;" style="ellipse;whiteSpace=wrap;html=1;fillColor=#e1d5e7;strokeColor=#9673a6;" parent="WIyWlLk6GJQsqaUBKTNV-1" vertex="1">
          <mxGeometry x="200" y="680" width="120" height="80" as="geometry" />
        </mxCell>
        <mxCell id="qkU0JbKQ6EuipafsIjLe-41" style="edgeStyle=orthogonalEdgeStyle;curved=1;rounded=0;orthogonalLoop=1;jettySize=auto;html=1;entryX=1;entryY=0.5;entryDx=0;entryDy=0;strokeColor=#0000FF;strokeWidth=3;exitX=1;exitY=0.25;exitDx=0;exitDy=0;" parent="WIyWlLk6GJQsqaUBKTNV-1" source="qkU0JbKQ6EuipafsIjLe-21" target="qkU0JbKQ6EuipafsIjLe-17" edge="1">
          <mxGeometry relative="1" as="geometry">
            <Array as="points">
              <mxPoint x="740" y="420" />
              <mxPoint x="740" y="920" />
            </Array>
            <mxPoint x="610" y="450.0199999999999" as="sourcePoint" />
            <mxPoint x="610" y="1050" as="targetPoint" />
          </mxGeometry>
        </mxCell>
      </root>
    </mxGraphModel>
  </diagram>
</mxfile>
